# xmcd
#
# Track frame offsets: 
#        150
#        62597
#        104426
#        159617
#        211946
#        283162
#
# Disc length: 4685 seconds
#
# Revision: 1
# Processed by: cddbd v1.5.2PL0 Copyright (c) Steve Scherf et al.
# Submitted via: ExactAudioCopy v0.95b4
#
DISCID=54124b06
DTITLE=NIK BARTSCH'S RONIN - LIVE
DYEAR=2006
DGENRE=Jazz
TTITLE0=MODUL 14
TTITLE1=MODUL 17
TTITLE2=MODUL 11
TTITLE3=MODUL 16
TTITLE4=MODUL 8_9
TTITLE5=MODUL 15
EXTD=YEAR: 2003
EXTT0=
EXTT1=
EXTT2=
EXTT3=
EXTT4=
EXTT5=
PLAYORDER=
